<svg width="12" height="26" viewBox="0 0 12 26" fill="none" xmlns="http://www.w3.org/2000/svg">
<path d="M7.3703 9.17378C7.3703 11.1336 5.44746 11.0596 5.44746 11.0596H3.52461V2.77661H5.89119C7.33332 2.77661 7.33332 4.10781 7.33332 4.10781L7.3703 9.17378ZM10.1067 23.3363V14.9793C10.1067 14.9793 9.88479 12.2799 7.3703 12.2799C7.3703 12.2799 9.92177 12.5018 9.92177 10.394V2.81358C9.92177 2.81358 9.99573 0.373047 6.85261 0.373047C3.7095 0.373047 0.973145 0.373047 0.973145 0.373047V25.1852H3.52461V14.0179H6.48284C6.48284 14.0179 7.51821 13.9069 7.51821 15.6819V23.817C7.51821 23.817 7.51821 25.2961 9.21919 25.2961H11.179V25.1482C11.216 25.1482 10.1067 24.5566 10.1067 23.3363Z" fill="#C6C6C6"/>
</svg>
