<svg width="11" height="26" viewBox="0 0 11 26" fill="none" xmlns="http://www.w3.org/2000/svg">
<path d="M6.49062 22.9297C6.67551 22.8927 6.82342 22.7818 6.93436 22.6709C7.11925 22.486 7.23018 22.3381 7.30414 22.1902C7.37809 22.0422 7.41506 21.7834 7.41506 21.3766L7.45206 20.1194H10.0035V21.2657C9.96654 21.4506 9.96655 21.6355 9.96655 21.7834C9.92957 21.9313 9.92955 22.0792 9.92955 22.2641C9.92955 22.449 9.89259 22.5969 9.85562 22.7448C9.78166 23.0407 9.67073 23.3735 9.48584 23.6693C9.30095 23.9651 9.15303 24.2239 8.96814 24.3719C8.82023 24.5198 8.52441 24.7416 8.11765 25.0005C7.7109 25.2593 7.15622 25.4072 6.49062 25.4072H4.30894C3.60636 25.4072 3.08866 25.2593 2.6819 25.0005C2.27515 24.7416 1.97933 24.5198 1.83142 24.3719C1.68351 24.2239 1.49861 23.9651 1.31372 23.6693C1.12883 23.3735 1.0179 23.0407 0.943942 22.7448C0.906964 22.5969 0.869991 22.449 0.833013 22.2641C0.796035 22.0792 0.796044 21.9313 0.796044 21.7834C0.759066 21.6355 0.759066 21.4506 0.796044 21.2657V4.25591C0.759066 4.07102 0.759066 3.88613 0.796044 3.73822C0.796044 3.59031 0.796035 3.4424 0.833013 3.29448C0.869991 3.14657 0.906964 2.96168 0.943942 2.81377C1.0179 2.51795 1.12883 2.18515 1.31372 1.88932C1.49861 1.5935 1.64653 1.33466 1.83142 1.18675C1.97933 1.03884 2.27515 0.816968 2.6819 0.558123C3.08866 0.299278 3.64334 0.151367 4.30894 0.151367H6.37969C7.08227 0.151367 7.59997 0.299278 8.00672 0.558123C8.41348 0.816968 8.7093 1.03884 8.85721 1.18675C9.00512 1.33466 9.19 1.5935 9.37489 1.88932C9.55978 2.18515 9.67071 2.51795 9.74467 2.81377C9.78164 2.96168 9.81862 3.14657 9.81862 3.29448C9.81862 3.4424 9.81864 3.62728 9.85562 3.73822C9.85562 3.88613 9.85561 4.07102 9.89258 4.25591V5.32827H7.3411V2.55493H4.86361C4.67872 2.5919 4.49383 2.62888 4.30894 2.66586C4.12405 2.70284 4.0131 2.77679 3.90217 2.88773C3.71728 3.07262 3.60635 3.22053 3.53239 3.36844C3.45844 3.51635 3.42146 3.7752 3.42146 4.18195L3.38449 5.95689V19.7126L3.42146 21.4876C3.45844 21.8943 3.49541 22.1532 3.53239 22.3011C3.60635 22.449 3.71728 22.5969 3.90217 22.7818C4.0131 22.8927 4.198 22.9667 4.41987 23.0407C4.64174 23.0776 4.86361 23.1146 5.0485 23.1146H5.97294C6.15783 23.0037 6.30573 23.0037 6.49062 22.9297Z" fill="#C6C6C6"/>
</svg>
